<mxfile host="app.diagrams.net" modified="2023-11-14T14:18:01.378Z" agent="Mozilla/5.0 (Windows NT 10.0; Win64; x64) AppleWebKit/537.36 (KHTML, like Gecko) Chrome/116.0.0.0 Safari/537.36 OPR/102.0.0.0" etag="o1Bp1NidUWyS8xDkYp4F" version="22.1.0" type="device">
  <diagram name="Page-1" id="b5b7bab2-c9e2-2cf4-8b2a-24fd1a2a6d21">
    <mxGraphModel dx="1009" dy="550" grid="1" gridSize="10" guides="1" tooltips="1" connect="1" arrows="1" fold="1" page="1" pageScale="1" pageWidth="3300" pageHeight="4681" background="none" math="0" shadow="0">
      <root>
        <mxCell id="0" />
        <mxCell id="1" parent="0" />
        <mxCell id="uh_h0ahgk6BjB-hdrbgP-2" value="" style="whiteSpace=wrap;html=1;aspect=fixed;fillColor=none;strokeWidth=2;" vertex="1" parent="1">
          <mxGeometry x="500" y="10" width="520" height="520" as="geometry" />
        </mxCell>
        <mxCell id="uh_h0ahgk6BjB-hdrbgP-3" value="Malware-Program" style="shape=umlActor;verticalLabelPosition=bottom;verticalAlign=top;html=1;outlineConnect=0;" vertex="1" parent="1">
          <mxGeometry x="410" y="120" width="30" height="60" as="geometry" />
        </mxCell>
        <mxCell id="uh_h0ahgk6BjB-hdrbgP-4" value="Infected PC" style="shape=umlActor;verticalLabelPosition=bottom;verticalAlign=top;html=1;outlineConnect=0;" vertex="1" parent="1">
          <mxGeometry x="400" y="340" width="30" height="60" as="geometry" />
        </mxCell>
        <mxCell id="uh_h0ahgk6BjB-hdrbgP-5" value="Malware-Administrator" style="shape=umlActor;verticalLabelPosition=bottom;verticalAlign=top;html=1;outlineConnect=0;" vertex="1" parent="1">
          <mxGeometry x="1070" y="100" width="30" height="60" as="geometry" />
        </mxCell>
        <mxCell id="uh_h0ahgk6BjB-hdrbgP-6" value="Server-Database" style="shape=umlActor;verticalLabelPosition=bottom;verticalAlign=top;html=1;outlineConnect=0;" vertex="1" parent="1">
          <mxGeometry x="1100" y="400" width="30" height="60" as="geometry" />
        </mxCell>
        <mxCell id="uh_h0ahgk6BjB-hdrbgP-10" value="Have saved logins/passwords" style="ellipse;whiteSpace=wrap;html=1;" vertex="1" parent="1">
          <mxGeometry x="550" y="400" width="110" height="50" as="geometry" />
        </mxCell>
        <mxCell id="uh_h0ahgk6BjB-hdrbgP-11" value="Have keyboard activity" style="ellipse;whiteSpace=wrap;html=1;" vertex="1" parent="1">
          <mxGeometry x="530" y="280" width="100" height="60" as="geometry" />
        </mxCell>
        <mxCell id="uh_h0ahgk6BjB-hdrbgP-16" value="" style="endArrow=none;html=1;rounded=0;entryX=0;entryY=1;entryDx=0;entryDy=0;" edge="1" parent="1" source="uh_h0ahgk6BjB-hdrbgP-4" target="uh_h0ahgk6BjB-hdrbgP-11">
          <mxGeometry width="50" height="50" relative="1" as="geometry">
            <mxPoint x="540" y="390" as="sourcePoint" />
            <mxPoint x="590" y="340" as="targetPoint" />
          </mxGeometry>
        </mxCell>
        <mxCell id="uh_h0ahgk6BjB-hdrbgP-17" value="" style="endArrow=none;html=1;rounded=0;entryX=0;entryY=0.5;entryDx=0;entryDy=0;" edge="1" parent="1" source="uh_h0ahgk6BjB-hdrbgP-4" target="uh_h0ahgk6BjB-hdrbgP-10">
          <mxGeometry width="50" height="50" relative="1" as="geometry">
            <mxPoint x="500" y="410" as="sourcePoint" />
            <mxPoint x="590" y="340" as="targetPoint" />
          </mxGeometry>
        </mxCell>
        <mxCell id="uh_h0ahgk6BjB-hdrbgP-19" value="Scans for the presence of passwords/logins and steals them" style="ellipse;whiteSpace=wrap;html=1;" vertex="1" parent="1">
          <mxGeometry x="550" y="20" width="130" height="80" as="geometry" />
        </mxCell>
        <mxCell id="uh_h0ahgk6BjB-hdrbgP-20" value="" style="endArrow=none;html=1;rounded=0;entryX=0;entryY=0.5;entryDx=0;entryDy=0;" edge="1" parent="1" source="uh_h0ahgk6BjB-hdrbgP-3" target="uh_h0ahgk6BjB-hdrbgP-19">
          <mxGeometry width="50" height="50" relative="1" as="geometry">
            <mxPoint x="850" y="290" as="sourcePoint" />
            <mxPoint x="900" y="240" as="targetPoint" />
          </mxGeometry>
        </mxCell>
        <mxCell id="uh_h0ahgk6BjB-hdrbgP-22" value="Scans for keyboard activity and steals typed text" style="ellipse;whiteSpace=wrap;html=1;" vertex="1" parent="1">
          <mxGeometry x="525" y="170" width="110" height="70" as="geometry" />
        </mxCell>
        <mxCell id="uh_h0ahgk6BjB-hdrbgP-24" value="" style="endArrow=none;html=1;rounded=0;entryX=0;entryY=0.5;entryDx=0;entryDy=0;" edge="1" parent="1" source="uh_h0ahgk6BjB-hdrbgP-3" target="uh_h0ahgk6BjB-hdrbgP-22">
          <mxGeometry width="50" height="50" relative="1" as="geometry">
            <mxPoint x="850" y="290" as="sourcePoint" />
            <mxPoint x="900" y="240" as="targetPoint" />
          </mxGeometry>
        </mxCell>
        <mxCell id="uh_h0ahgk6BjB-hdrbgP-25" value="" style="endArrow=none;dashed=1;html=1;rounded=0;exitX=0.5;exitY=1;exitDx=0;exitDy=0;entryX=1;entryY=0;entryDx=0;entryDy=0;" edge="1" parent="1" source="uh_h0ahgk6BjB-hdrbgP-19" target="uh_h0ahgk6BjB-hdrbgP-10">
          <mxGeometry width="50" height="50" relative="1" as="geometry">
            <mxPoint x="850" y="290" as="sourcePoint" />
            <mxPoint x="900" y="240" as="targetPoint" />
          </mxGeometry>
        </mxCell>
        <mxCell id="uh_h0ahgk6BjB-hdrbgP-26" value="" style="endArrow=none;dashed=1;html=1;rounded=0;exitX=0.5;exitY=1;exitDx=0;exitDy=0;entryX=0.5;entryY=0;entryDx=0;entryDy=0;" edge="1" parent="1" source="uh_h0ahgk6BjB-hdrbgP-22" target="uh_h0ahgk6BjB-hdrbgP-11">
          <mxGeometry width="50" height="50" relative="1" as="geometry">
            <mxPoint x="850" y="290" as="sourcePoint" />
            <mxPoint x="900" y="240" as="targetPoint" />
          </mxGeometry>
        </mxCell>
        <mxCell id="uh_h0ahgk6BjB-hdrbgP-28" value="Accepts hashed logins/passwords and keyboard input" style="ellipse;whiteSpace=wrap;html=1;" vertex="1" parent="1">
          <mxGeometry x="740" y="410" width="120" height="80" as="geometry" />
        </mxCell>
        <mxCell id="uh_h0ahgk6BjB-hdrbgP-29" value="Hashes logins/passwords and keyboard input and sends to the server" style="ellipse;whiteSpace=wrap;html=1;" vertex="1" parent="1">
          <mxGeometry x="680" y="105" width="120" height="90" as="geometry" />
        </mxCell>
        <mxCell id="uh_h0ahgk6BjB-hdrbgP-30" value="" style="endArrow=none;html=1;rounded=0;entryX=0;entryY=0.5;entryDx=0;entryDy=0;" edge="1" parent="1" source="uh_h0ahgk6BjB-hdrbgP-3" target="uh_h0ahgk6BjB-hdrbgP-29">
          <mxGeometry width="50" height="50" relative="1" as="geometry">
            <mxPoint x="850" y="290" as="sourcePoint" />
            <mxPoint x="900" y="240" as="targetPoint" />
          </mxGeometry>
        </mxCell>
        <mxCell id="uh_h0ahgk6BjB-hdrbgP-31" value="" style="endArrow=none;html=1;rounded=0;entryX=1;entryY=0.5;entryDx=0;entryDy=0;" edge="1" parent="1" source="uh_h0ahgk6BjB-hdrbgP-6" target="uh_h0ahgk6BjB-hdrbgP-28">
          <mxGeometry width="50" height="50" relative="1" as="geometry">
            <mxPoint x="700" y="390" as="sourcePoint" />
            <mxPoint x="750" y="340" as="targetPoint" />
          </mxGeometry>
        </mxCell>
        <mxCell id="uh_h0ahgk6BjB-hdrbgP-32" value="" style="endArrow=none;dashed=1;html=1;rounded=0;exitX=0.5;exitY=1;exitDx=0;exitDy=0;entryX=0;entryY=0;entryDx=0;entryDy=0;" edge="1" parent="1" source="uh_h0ahgk6BjB-hdrbgP-29" target="uh_h0ahgk6BjB-hdrbgP-28">
          <mxGeometry width="50" height="50" relative="1" as="geometry">
            <mxPoint x="700" y="290" as="sourcePoint" />
            <mxPoint x="750" y="240" as="targetPoint" />
          </mxGeometry>
        </mxCell>
        <mxCell id="uh_h0ahgk6BjB-hdrbgP-33" value="Notifies the administrator via interace when new data arrives" style="ellipse;whiteSpace=wrap;html=1;" vertex="1" parent="1">
          <mxGeometry x="850" y="330" width="120" height="80" as="geometry" />
        </mxCell>
        <mxCell id="uh_h0ahgk6BjB-hdrbgP-34" value="Administrator interface program" style="shape=umlActor;verticalLabelPosition=bottom;verticalAlign=top;html=1;outlineConnect=0;" vertex="1" parent="1">
          <mxGeometry x="1080" y="240" width="30" height="60" as="geometry" />
        </mxCell>
        <mxCell id="uh_h0ahgk6BjB-hdrbgP-36" value="" style="endArrow=none;html=1;rounded=0;entryX=1;entryY=1;entryDx=0;entryDy=0;" edge="1" parent="1" target="uh_h0ahgk6BjB-hdrbgP-33">
          <mxGeometry width="50" height="50" relative="1" as="geometry">
            <mxPoint x="1090" y="420" as="sourcePoint" />
            <mxPoint x="750" y="240" as="targetPoint" />
          </mxGeometry>
        </mxCell>
        <mxCell id="uh_h0ahgk6BjB-hdrbgP-38" value="" style="endArrow=none;html=1;rounded=0;entryX=1;entryY=0;entryDx=0;entryDy=0;" edge="1" parent="1" source="uh_h0ahgk6BjB-hdrbgP-34" target="uh_h0ahgk6BjB-hdrbgP-33">
          <mxGeometry width="50" height="50" relative="1" as="geometry">
            <mxPoint x="700" y="290" as="sourcePoint" />
            <mxPoint x="970" y="255" as="targetPoint" />
          </mxGeometry>
        </mxCell>
        <mxCell id="uh_h0ahgk6BjB-hdrbgP-41" value="Obtains and analyzes data from the database through an interface" style="ellipse;whiteSpace=wrap;html=1;" vertex="1" parent="1">
          <mxGeometry x="840" y="40" width="130" height="90" as="geometry" />
        </mxCell>
        <mxCell id="uh_h0ahgk6BjB-hdrbgP-42" value="" style="endArrow=none;html=1;rounded=0;entryX=1;entryY=0.5;entryDx=0;entryDy=0;" edge="1" parent="1" source="uh_h0ahgk6BjB-hdrbgP-5" target="uh_h0ahgk6BjB-hdrbgP-41">
          <mxGeometry width="50" height="50" relative="1" as="geometry">
            <mxPoint x="700" y="290" as="sourcePoint" />
            <mxPoint x="750" y="240" as="targetPoint" />
          </mxGeometry>
        </mxCell>
        <mxCell id="uh_h0ahgk6BjB-hdrbgP-43" value="" style="endArrow=none;dashed=1;html=1;rounded=0;exitX=0;exitY=1;exitDx=0;exitDy=0;entryX=1;entryY=0.5;entryDx=0;entryDy=0;" edge="1" parent="1" source="uh_h0ahgk6BjB-hdrbgP-29" target="uh_h0ahgk6BjB-hdrbgP-22">
          <mxGeometry width="50" height="50" relative="1" as="geometry">
            <mxPoint x="700" y="290" as="sourcePoint" />
            <mxPoint x="750" y="240" as="targetPoint" />
          </mxGeometry>
        </mxCell>
        <mxCell id="uh_h0ahgk6BjB-hdrbgP-44" value="" style="endArrow=none;dashed=1;html=1;rounded=0;exitX=1;exitY=1;exitDx=0;exitDy=0;entryX=0;entryY=0;entryDx=0;entryDy=0;" edge="1" parent="1" source="uh_h0ahgk6BjB-hdrbgP-19" target="uh_h0ahgk6BjB-hdrbgP-29">
          <mxGeometry width="50" height="50" relative="1" as="geometry">
            <mxPoint x="700" y="290" as="sourcePoint" />
            <mxPoint x="750" y="240" as="targetPoint" />
          </mxGeometry>
        </mxCell>
        <mxCell id="uh_h0ahgk6BjB-hdrbgP-45" value="Receives notifications from the interface" style="ellipse;whiteSpace=wrap;html=1;" vertex="1" parent="1">
          <mxGeometry x="855" y="170" width="100" height="70" as="geometry" />
        </mxCell>
        <mxCell id="uh_h0ahgk6BjB-hdrbgP-46" value="" style="endArrow=none;html=1;rounded=0;entryX=1;entryY=0.5;entryDx=0;entryDy=0;" edge="1" parent="1" source="uh_h0ahgk6BjB-hdrbgP-5" target="uh_h0ahgk6BjB-hdrbgP-45">
          <mxGeometry width="50" height="50" relative="1" as="geometry">
            <mxPoint x="700" y="290" as="sourcePoint" />
            <mxPoint x="750" y="240" as="targetPoint" />
          </mxGeometry>
        </mxCell>
        <mxCell id="uh_h0ahgk6BjB-hdrbgP-47" value="" style="endArrow=none;dashed=1;html=1;rounded=0;exitX=0.5;exitY=1;exitDx=0;exitDy=0;entryX=0.5;entryY=0;entryDx=0;entryDy=0;" edge="1" parent="1" source="uh_h0ahgk6BjB-hdrbgP-45" target="uh_h0ahgk6BjB-hdrbgP-33">
          <mxGeometry width="50" height="50" relative="1" as="geometry">
            <mxPoint x="700" y="290" as="sourcePoint" />
            <mxPoint x="750" y="240" as="targetPoint" />
          </mxGeometry>
        </mxCell>
        <mxCell id="uh_h0ahgk6BjB-hdrbgP-48" value="" style="endArrow=none;dashed=1;html=1;rounded=0;exitX=0;exitY=1;exitDx=0;exitDy=0;entryX=0.5;entryY=0;entryDx=0;entryDy=0;" edge="1" parent="1" source="uh_h0ahgk6BjB-hdrbgP-41" target="uh_h0ahgk6BjB-hdrbgP-28">
          <mxGeometry width="50" height="50" relative="1" as="geometry">
            <mxPoint x="700" y="290" as="sourcePoint" />
            <mxPoint x="750" y="240" as="targetPoint" />
          </mxGeometry>
        </mxCell>
      </root>
    </mxGraphModel>
  </diagram>
</mxfile>
